<svg width="24" height="18" viewBox="0 0 24 18" fill="none" xmlns="http://www.w3.org/2000/svg">
<g id="MENU 2" clip-path="url(#clip0_380_270)">
<g id="MENU">
<path id="&#231;&#183;&#154; 154 (Stroke)" fill-rule="evenodd" clip-rule="evenodd" d="M0 0.9C0 0.402944 0.42067 0 0.939592 0H23.0604C23.5793 0 24 0.402944 24 0.9C24 1.39706 23.5793 1.8 23.0604 1.8H0.939592C0.42067 1.8 0 1.39706 0 0.9Z" fill="#222222"/>
<path id="&#227;&#131;&#145;&#227;&#130;&#185; 24677 (Stroke)" fill-rule="evenodd" clip-rule="evenodd" d="M0 9C0 8.50294 0.413276 8.1 0.923077 8.1H23.0769C23.5867 8.1 24 8.50294 24 9C24 9.49706 23.5867 9.9 23.0769 9.9H0.923077C0.413276 9.9 0 9.49706 0 9Z" fill="#222222"/>
<path id="&#227;&#131;&#145;&#227;&#130;&#185; 24678 (Stroke)" fill-rule="evenodd" clip-rule="evenodd" d="M0 17.1C0 16.6029 0.413276 16.2 0.923077 16.2H23.0769C23.5867 16.2 24 16.6029 24 17.1C24 17.5971 23.5867 18 23.0769 18H0.923077C0.413276 18 0 17.5971 0 17.1Z" fill="#222222"/>
</g>
</g>
<defs>
<clipPath id="clip0_380_270">
<rect width="24" height="18" fill="white"/>
</clipPath>
</defs>
</svg>
